<svg xmlns="http://www.w3.org/2000/svg" xmlns:xlink="http://www.w3.org/1999/xlink" width="500" zoomAndPan="magnify" viewBox="0 0 375 374.999991" height="500" preserveAspectRatio="xMidYMid meet" version="1.2"><defs><clipPath id="6f7cbee58c"><path d="M 13.292969 13.292969 L 362 13.292969 L 362 362 L 13.292969 362 Z M 13.292969 13.292969 "/></clipPath><clipPath id="4587a4afe4"><path d="M 100.753906 84.996094 L 274.003906 84.996094 L 274.003906 289.746094 L 100.753906 289.746094 Z M 100.753906 84.996094 "/></clipPath></defs><g id="cb078becc8"><rect x="0" width="375" y="0" height="374.999991" style="fill:#ffffff;fill-opacity:1;stroke:none;"/><rect x="0" width="375" y="0" height="374.999991" style="fill:#050a30;fill-opacity:1;stroke:none;"/><g clip-rule="nonzero" clip-path="url(#6f7cbee58c)"><path style=" stroke:none;fill-rule:nonzero;fill:#ff3131;fill-opacity:1;" d="M 187.496094 13.292969 C 91.25 13.292969 13.292969 91.25 13.292969 187.496094 C 13.292969 283.746094 91.25 361.703125 187.496094 361.703125 C 283.746094 361.703125 361.703125 283.746094 361.703125 187.496094 C 361.703125 91.25 283.746094 13.292969 187.496094 13.292969 Z M 187.496094 326.863281 C 110.5 326.863281 48.132812 264.496094 48.132812 187.496094 C 48.132812 110.5 110.5 48.132812 187.496094 48.132812 C 264.496094 48.132812 326.863281 110.5 326.863281 187.496094 C 326.863281 264.496094 264.496094 326.863281 187.496094 326.863281 Z M 187.496094 326.863281 "/></g><g clip-rule="nonzero" clip-path="url(#4587a4afe4)"><path style=" stroke:none;fill-rule:nonzero;fill:#ff3131;fill-opacity:1;" d="M 116.457031 266.414062 L 120.289062 268.679688 C 135.53125 277.691406 151.792969 284.296875 167.269531 287.734375 L 176.789062 289.867188 L 176.789062 219.589844 C 182.90625 219.804688 189.117188 219.902344 195.3125 219.902344 C 196.195312 219.902344 197.09375 219.902344 197.972656 219.882812 L 197.972656 274.269531 C 197.972656 274.269531 213.605469 289.90625 213.605469 289.90625 L 223.125 287.792969 C 238.679688 284.355469 255.019531 277.75 270.339844 268.679688 L 274.171875 266.414062 L 274.171875 124.101562 L 258.535156 108.464844 L 255 106.160156 C 240.636719 96.757812 224.589844 90.269531 207.3125 86.832031 L 197.972656 84.996094 L 197.972656 145.851562 C 191.914062 145.636719 185.796875 145.519531 179.660156 145.519531 C 178.703125 145.519531 177.746094 145.539062 176.789062 145.539062 L 176.789062 100.628906 C 176.789062 100.628906 161.171875 84.996094 161.171875 84.996094 L 151.8125 86.871094 C 134.632812 90.308594 118.667969 96.816406 104.359375 106.160156 L 100.824219 108.464844 L 100.824219 250.761719 L 116.457031 266.394531 Z M 116.457031 266.414062 "/></g><path style=" stroke:none;fill-rule:nonzero;fill:#050a30;fill-opacity:1;" d="M 108.640625 112.707031 C 122.320312 103.757812 137.5625 97.71875 153.355469 94.53125 C 153.355469 114.386719 153.355469 134.222656 153.355469 154.058594 C 170.613281 153.101562 188.550781 153.101562 205.808594 154.058594 C 205.808594 134.222656 205.808594 114.367188 205.808594 94.511719 C 221.679688 97.679688 237 103.738281 250.738281 112.726562 C 250.738281 157.265625 250.738281 201.804688 250.738281 246.34375 C 237.15625 254.375 221.699219 261.039062 205.808594 264.558594 C 205.808594 241.671875 205.808594 218.75 205.808594 195.84375 C 188.53125 196.703125 170.613281 196.703125 153.355469 195.84375 C 153.355469 218.75 153.355469 241.652344 153.355469 264.519531 C 137.542969 261 122.164062 254.355469 108.640625 246.363281 C 108.640625 201.824219 108.640625 157.285156 108.640625 112.746094 Z M 108.640625 112.707031 "/></g></svg>