<svg xmlns="http://www.w3.org/2000/svg" xmlns:xlink="http://www.w3.org/1999/xlink" width="500" zoomAndPan="magnify" viewBox="0 0 375 374.999991" height="500" preserveAspectRatio="xMidYMid meet" version="1.2"><defs><clipPath id="363eaea53f"><path d="M 36.042969 8.527344 L 339 8.527344 L 339 366.277344 L 36.042969 366.277344 Z M 36.042969 8.527344 "/></clipPath></defs><g id="ff6b805cd8"><g clip-rule="nonzero" clip-path="url(#363eaea53f)"><path style=" stroke:none;fill-rule:nonzero;fill:#050a30;fill-opacity:1;" d="M 63.464844 325.28125 L 70.152344 329.238281 C 96.765625 344.96875 125.15625 356.5 152.179688 362.507812 L 168.796875 366.226562 L 168.796875 243.523438 C 179.480469 243.898438 190.328125 244.070312 201.144531 244.070312 C 202.679688 244.070312 204.25 244.070312 205.785156 244.035156 L 205.785156 338.996094 C 205.785156 338.996094 233.082031 366.292969 233.082031 366.292969 L 249.703125 362.609375 C 276.863281 356.601562 305.386719 345.070312 332.140625 329.238281 L 338.828125 325.28125 L 338.828125 76.804688 L 311.53125 49.507812 L 305.355469 45.480469 C 280.273438 29.066406 252.261719 17.738281 222.097656 11.734375 L 205.785156 8.527344 L 205.785156 114.78125 C 195.207031 114.40625 184.527344 114.203125 173.8125 114.203125 C 172.140625 114.203125 170.46875 114.234375 168.796875 114.234375 L 168.796875 35.824219 C 168.796875 35.824219 141.535156 8.527344 141.535156 8.527344 L 125.191406 11.800781 C 95.199219 17.808594 67.320312 29.171875 42.34375 45.480469 L 36.167969 49.507812 L 36.167969 297.949219 L 63.464844 325.246094 Z M 63.464844 325.28125 "/></g><path style=" stroke:none;fill-rule:nonzero;fill:#ff4641;fill-opacity:1;" d="M 49.816406 56.910156 C 73.699219 41.285156 100.316406 30.742188 127.886719 25.179688 C 127.886719 59.847656 127.886719 94.480469 127.886719 129.113281 C 158.015625 127.441406 189.339844 127.441406 219.46875 129.113281 C 219.46875 94.480469 219.46875 59.8125 219.46875 25.144531 C 247.175781 30.671875 273.925781 41.25 297.914062 56.945312 C 297.914062 134.710938 297.914062 212.472656 297.914062 290.238281 C 274.199219 304.261719 247.210938 315.894531 219.46875 322.039062 C 219.46875 282.082031 219.46875 242.054688 219.46875 202.066406 C 189.304688 203.566406 158.015625 203.566406 127.886719 202.066406 C 127.886719 242.054688 127.886719 282.046875 127.886719 321.96875 C 100.28125 315.828125 73.429688 304.226562 49.816406 290.269531 C 49.816406 212.507812 49.816406 134.742188 49.816406 56.980469 Z M 49.816406 56.910156 "/></g></svg>